# xmcd
#
# Track frame offsets: 
#        179
#        8927
#        17179
#        26978
#        37109
#        48559
#        58409
#        67394
#        77014
#        85114
#        96744
#        109357
#
# Disc length: 1568 seconds
#
# Revision: 4
# Processed by: cddbd v1.5.2PL0 Copyright (c) Steve Scherf et al.
# Submitted via: ExactAudioCopyFreeDBPlugin 1.0
#
DISCID=b4061e0c
DTITLE=Johnny Cash - 1959 - Johnny Cash - Songs Of Our Soil
DYEAR=1959
DGENRE=Country
TTITLE0=Drink To Me
TTITLE1=Five Feet High And Rising
TTITLE2=The Man On The Hill
TTITLE3=Hank And Joe And Me
TTITLE4=Clementine
TTITLE5=The Great Speckled Bird
TTITLE6=I Want To Go Home
TTITLE7=The Caretaker
TTITLE8=Old Apache Squaw
TTITLE9=Don't Step On Mother's Roses
TTITLE10=My Grandfather's Clock
TTITLE11=It Could Be You (Instead Of Him)
EXTD=
EXTT0=
EXTT1=
EXTT2=
EXTT3=
EXTT4=
EXTT5=
EXTT6=
EXTT7=
EXTT8=
EXTT9=
EXTT10=
EXTT11=
PLAYORDER=
